<svg width="213" height="45" viewBox="0 0 213 45" fill="none" xmlns="http://www.w3.org/2000/svg">
<rect x="94.2681" y="7.90491" width="61.5" height="22.5" transform="rotate(-4.3239 94.2681 7.90491)" fill="white"/>
<rect x="94.2681" y="7.90491" width="61.5" height="22.5" transform="rotate(-4.3239 94.2681 7.90491)" stroke="black" stroke-width="0.5"/>
<path d="M105.968 22.8153L105.334 14.4392L108.266 14.2175L110.266 21.4072L110.481 21.3909L111.377 13.9823L114.309 13.7606L114.942 22.1367L113.41 22.2525L112.865 15.0371L112.649 15.0534L111.759 22.3774L109.151 22.5746L107.169 15.4678L106.954 15.4841L107.499 22.6995L105.968 22.8153ZM116.52 22.0174L115.886 13.6413L121.271 13.2342L121.379 14.6701L117.574 14.9578L117.725 16.9561L121.196 16.6937L121.304 18.1296L117.834 18.392L117.991 20.4621L121.867 20.169L121.976 21.6049L116.52 22.0174ZM123.145 21.5165L122.512 13.1404L125.444 12.9187L127.443 20.1084L127.659 20.0921L128.555 12.6835L131.486 12.4618L132.12 20.8379L130.588 20.9537L130.042 13.7383L129.827 13.7546L128.937 21.0786L126.328 21.2758L124.347 14.169L124.131 14.1853L124.677 21.4007L123.145 21.5165ZM133.697 20.7186L133.064 12.3426L138.448 11.9354L138.557 13.3713L134.752 13.659L134.903 15.6573L138.373 15.395L138.482 16.8309L135.012 17.0932L135.168 19.1633L139.045 18.8702L139.154 20.3061L133.697 20.7186ZM143.243 20.1654C142.597 20.2142 142.018 20.1417 141.506 19.9477C140.994 19.7538 140.582 19.452 140.27 19.0423C139.958 18.6327 139.779 18.1247 139.734 17.5184L139.708 17.1834L141.264 17.0658L141.289 17.4008C141.327 17.9034 141.511 18.2705 141.842 18.5023C142.172 18.7261 142.604 18.8177 143.138 18.7773C143.681 18.7363 144.075 18.5982 144.322 18.3629C144.577 18.127 144.692 17.8415 144.667 17.5065C144.649 17.2751 144.567 17.0928 144.421 16.9594C144.282 16.8255 144.082 16.7243 143.82 16.6559C143.566 16.5788 143.256 16.514 142.891 16.4614L142.611 16.4224C142.027 16.3381 141.52 16.216 141.091 16.0559C140.669 15.8872 140.335 15.6518 140.087 15.3496C139.848 15.0468 139.708 14.6401 139.67 14.1296C139.631 13.619 139.718 13.1752 139.93 12.7982C140.15 12.4125 140.472 12.1074 140.896 11.8827C141.328 11.6495 141.843 11.5103 142.441 11.4651C143.039 11.4198 143.577 11.4834 144.056 11.6559C144.542 11.8197 144.931 12.0951 145.225 12.482C145.527 12.8604 145.7 13.3527 145.746 13.959L145.773 14.3179L144.218 14.4356L144.191 14.0766C144.167 13.7575 144.083 13.507 143.941 13.3252C143.807 13.1349 143.62 13.0045 143.382 12.9343C143.144 12.856 142.865 12.829 142.546 12.8531C142.067 12.8893 141.719 13.0079 141.502 13.2089C141.292 13.4012 141.198 13.653 141.222 13.9641C141.237 14.1715 141.303 14.3431 141.417 14.4788C141.54 14.614 141.712 14.7213 141.935 14.8007C142.158 14.8802 142.439 14.9431 142.78 14.9896L143.059 15.0286C143.667 15.111 144.198 15.2353 144.652 15.4016C145.114 15.5672 145.481 15.8042 145.753 16.1126C146.025 16.421 146.18 16.8304 146.219 17.341C146.257 17.8515 146.16 18.3122 145.926 18.723C145.7 19.1252 145.356 19.4561 144.894 19.7156C144.44 19.9666 143.889 20.1165 143.243 20.1654Z" fill="black"/>
<rect x="0.709617" y="22.0769" width="80.5" height="22.5" transform="rotate(-15.0358 0.709617 22.0769)" fill="white"/>
<rect x="0.709617" y="22.0769" width="80.5" height="22.5" transform="rotate(-15.0358 0.709617 22.0769)" stroke="black" stroke-width="0.5"/>
<path d="M18.1029 33.887C17.0985 34.1568 16.228 34.0924 15.4914 33.6939C14.7527 33.2876 14.2433 32.563 13.9631 31.5199L13.4401 29.5729C13.1599 28.5299 13.2387 27.6514 13.6765 26.9374C14.1121 26.2157 14.8322 25.7199 15.8366 25.4501C16.8332 25.1824 17.6757 25.2501 18.3638 25.6534C19.0577 26.0469 19.5322 26.7188 19.7875 27.6691L19.8062 27.7386L18.2996 28.1433L18.2685 28.0274C18.1398 27.5484 17.8987 27.1907 17.5453 26.9543C17.1996 26.7158 16.7525 26.6703 16.2039 26.8176C15.6631 26.9629 15.2828 27.2431 15.063 27.6584C14.8432 28.0736 14.8101 28.5671 14.9636 29.1388L15.4991 31.1322C15.6506 31.6962 15.9265 32.1067 16.3269 32.3636C16.7252 32.6128 17.1947 32.6648 17.7355 32.5195C18.2841 32.3721 18.6482 32.1087 18.8279 31.729C19.0132 31.3396 19.0426 30.9093 18.916 30.438L18.8599 30.2294L20.3665 29.8247L20.4101 29.9869C20.6654 30.9373 20.5924 31.7604 20.1912 32.4563C19.7957 33.1424 19.0996 33.6193 18.1029 33.887ZM22.4348 32.5494L20.2557 24.437L23.7788 23.4906C24.2887 23.3536 24.7568 23.3232 25.1832 23.3992C25.6095 23.4752 25.9705 23.6474 26.2663 23.9159C26.5621 24.1843 26.7691 24.5388 26.8874 24.9791L26.9247 25.1182C27.0555 25.605 27.0454 26.0301 26.8946 26.3937C26.7438 26.7573 26.517 27.0543 26.2145 27.2847L26.2705 27.4933C26.5837 27.4257 26.8522 27.4695 27.0762 27.6247C27.298 27.7722 27.4526 28.0082 27.5397 28.3327L28.2526 30.9866L26.7228 31.3976L26.0691 28.9638C26.0193 28.7784 25.9286 28.6413 25.797 28.5523C25.6732 28.4614 25.4992 28.446 25.2752 28.5061L23.1428 29.0789L23.9646 32.1385L22.4348 32.5494ZM22.7692 27.6882L24.6003 27.1964C24.9634 27.0988 25.2195 26.9265 25.3685 26.6794C25.5231 26.4225 25.5569 26.1318 25.4697 25.8073L25.4386 25.6914C25.3514 25.3669 25.1814 25.135 24.9287 24.9959C24.6738 24.8489 24.361 24.8253 23.9901 24.9249L22.159 25.4168L22.7692 27.6882ZM29.7573 30.5825L27.5782 22.47L32.7933 21.0692L33.1668 22.4599L29.4815 23.4498L30.0014 25.3852L33.3622 24.4824L33.7358 25.8731L30.3749 26.7759L30.9135 28.7808L34.6684 27.7722L35.042 29.1629L29.7573 30.5825ZM35.6181 29.0082L35.5713 20.3229L38.2368 19.6069L42.5484 27.1465L40.9723 27.5699L40.0525 25.9035L37.1552 26.6817L37.1942 28.5848L35.6181 29.0082ZM37.1346 25.1714L39.3134 24.5861L37.2668 20.8988L37.0582 20.9548L37.1346 25.1714ZM44.6499 26.582L42.8443 19.8603L40.4802 20.4954L40.1066 19.1047L46.3647 17.4236L46.7383 18.8143L44.3741 19.4494L46.1797 26.1711L44.6499 26.582ZM49.5856 25.2562L47.4065 17.1438L48.9363 16.7329L51.1154 24.8453L49.5856 25.2562ZM54.148 24.0307L49.906 16.4724L51.4821 16.049L55.1118 22.7156L55.2741 22.672L55.0747 15.084L56.6509 14.6606L56.7671 23.3271L54.148 24.0307ZM59.8054 22.511L57.6262 14.3986L62.8414 12.9977L63.2149 14.3884L59.5296 15.3784L60.0495 17.3137L63.4103 16.411L63.7839 17.8017L60.423 18.7044L60.9616 20.7094L64.7165 19.7007L65.09 21.0914L59.8054 22.511ZM69.0822 20.193C68.4564 20.3611 67.8739 20.3975 67.3347 20.3021C66.7955 20.2067 66.3346 19.9868 65.9521 19.6422C65.5696 19.2976 65.2995 18.8317 65.1418 18.2445L65.0546 17.92L66.5612 17.5153L66.6484 17.8398C66.7791 18.3266 67.0284 18.6531 67.3961 18.8194C67.7618 18.978 68.2034 18.9877 68.7211 18.8487C69.2464 18.7076 69.6086 18.4985 69.8075 18.2214C70.0142 17.9422 70.0739 17.6404 69.9868 17.3159C69.9266 17.0918 69.8121 16.9279 69.6434 16.8241C69.4825 16.7182 69.2669 16.656 68.9969 16.6374C68.7325 16.6091 68.416 16.6029 68.0476 16.6191L67.7655 16.6327C67.176 16.6585 66.6555 16.6327 66.2039 16.5552C65.758 16.4679 65.3854 16.2987 65.086 16.0478C64.7944 15.7948 64.5822 15.4211 64.4493 14.9266C64.3165 14.4321 64.3193 13.9799 64.4577 13.57C64.6017 13.1502 64.8613 12.7906 65.2365 12.491C65.6172 12.1816 66.0973 11.9491 66.6768 11.7935C67.2563 11.6378 67.797 11.6002 68.2991 11.6808C68.8068 11.7515 69.2411 11.9496 69.6019 12.2751C69.9684 12.5909 70.2305 13.0423 70.3882 13.6295L70.4816 13.9772L68.975 14.3819L68.8816 14.0342C68.7986 13.7252 68.6704 13.4945 68.4969 13.3423C68.3291 13.1803 68.1218 13.0869 67.8749 13.0621C67.626 13.0296 67.347 13.0548 67.0379 13.1378C66.5744 13.2623 66.2544 13.4435 66.0781 13.6814C65.9074 13.9095 65.8625 14.1742 65.9435 14.4755C65.9974 14.6764 66.0933 14.8329 66.2311 14.945C66.3766 15.055 66.5662 15.1283 66.7997 15.165C67.0332 15.2017 67.3215 15.2112 67.6647 15.1936L67.9468 15.1799C68.5595 15.1479 69.1042 15.1714 69.581 15.2504C70.0656 15.3273 70.4702 15.492 70.7948 15.7444C71.1194 15.9969 71.3481 16.3703 71.4809 16.8648C71.6137 17.3593 71.6035 17.83 71.4502 18.2771C71.3026 18.7144 71.0261 19.1034 70.6206 19.4443C70.2208 19.7753 69.708 20.0249 69.0822 20.193Z" fill="black"/>
<rect x="70.2571" y="9.31494" width="42.5" height="22.5" transform="rotate(17.9713 70.2571 9.31494)" fill="white"/>
<rect x="70.2571" y="9.31494" width="42.5" height="22.5" transform="rotate(17.9713 70.2571 9.31494)" stroke="black" stroke-width="0.5"/>
<path d="M74.8772 27.3714L79.5693 20.0625L82.1946 20.9141L81.7031 29.5855L80.1508 29.082L80.2872 27.1834L77.4336 26.2578L76.4296 27.875L74.8772 27.3714ZM78.2391 24.98L80.385 25.6761L80.6774 21.469L80.4719 21.4024L78.2391 24.98ZM82.6595 29.8957L85.2513 21.9056L88.7213 23.0311C89.2235 23.194 89.6327 23.4235 89.9488 23.7194C90.2649 24.0154 90.4739 24.3565 90.5757 24.7428C90.6775 25.129 90.658 25.539 90.5173 25.9728L90.4729 26.1098C90.3174 26.5892 90.0773 26.9402 89.7528 27.163C89.4282 27.3857 89.0763 27.5112 88.6971 27.5396L88.6304 27.7451C88.9299 27.859 89.1312 28.0421 89.2345 28.2942C89.3402 28.5388 89.3412 28.8209 89.2375 29.1405L88.3896 31.7544L86.8829 31.2657L87.6604 28.8686C87.7197 28.686 87.7184 28.5215 87.6565 28.3753C87.6022 28.2315 87.4647 28.1239 87.244 28.0523L85.1437 27.371L84.1663 30.3845L82.6595 29.8957ZM85.588 26.0013L87.3915 26.5863C87.7492 26.7023 88.0578 26.6973 88.3173 26.5712C88.587 26.44 88.7736 26.2146 88.8773 25.895L88.9143 25.7808C89.018 25.4612 89.0018 25.1742 88.8656 24.9198C88.7319 24.6578 88.4825 24.4675 88.1172 24.349L86.3137 23.764L85.588 26.0013ZM91.587 32.7915L93.7345 26.1711L91.4059 25.4158L91.8502 24.046L98.0141 26.0454L97.5698 27.4151L95.2412 26.6598L93.0938 33.2802L91.587 32.7915Z" fill="black"/>
<rect x="145.639" y="9.29358" width="67.5" height="22.5" transform="rotate(11.1362 145.639 9.29358)" fill="white"/>
<rect x="145.639" y="9.29358" width="67.5" height="22.5" transform="rotate(11.1362 145.639 9.29358)" stroke="black" stroke-width="0.5"/>
<path d="M154.471 27.0844L153.998 18.43L155.599 18.7452L155.916 26.3293L156.081 26.3617L159.249 19.4637L160.85 19.7789L157.132 27.6082L154.471 27.0844ZM160.219 28.2158L161.841 19.974L163.395 20.2799L161.773 28.5218L160.219 28.2158ZM163.323 28.8269L164.946 20.5851L168.525 21.2897C169.043 21.3917 169.477 21.5708 169.826 21.827C170.175 22.0833 170.423 22.3971 170.57 22.7685C170.717 23.1399 170.746 23.5493 170.658 23.9967L170.631 24.138C170.533 24.6325 170.337 25.0096 170.041 25.2694C169.745 25.5292 169.411 25.6957 169.038 25.769L168.996 25.9809C169.307 26.0585 169.528 26.2162 169.661 26.4543C169.795 26.6845 169.83 26.9645 169.765 27.2942L169.234 29.9904L167.68 29.6845L168.166 27.2119C168.204 27.0236 168.183 26.8604 168.104 26.7226C168.033 26.5863 167.883 26.4958 167.656 26.451L165.489 26.0245L164.878 29.1329L163.323 28.8269ZM165.768 24.6116L167.628 24.9778C167.997 25.0505 168.303 25.0087 168.545 24.8527C168.797 24.6903 168.956 24.4443 169.021 24.1146L169.044 23.9969C169.109 23.6672 169.059 23.3842 168.893 23.1478C168.729 22.9035 168.459 22.7443 168.082 22.6701L166.222 22.3039L165.768 24.6116ZM172.532 30.6397L173.876 23.8107L171.474 23.3379L171.753 21.925L178.111 23.1766L177.832 24.5894L175.43 24.1166L174.086 30.9456L172.532 30.6397ZM180.693 32.4174C180.018 32.2845 179.461 32.0485 179.022 31.7093C178.593 31.3639 178.294 30.9381 178.124 30.4318C177.964 29.9193 177.946 29.349 178.07 28.7211L179.122 23.3756L180.676 23.6816L179.614 29.0741C179.516 29.5764 179.579 30.0006 179.804 30.3467C180.038 30.6943 180.425 30.9214 180.967 31.028C181.508 31.1346 181.949 31.0705 182.289 30.8357C182.636 30.6025 182.859 30.2347 182.958 29.7323L184.02 24.3398L185.574 24.6457L184.522 29.9911C184.398 30.6191 184.161 31.1391 183.811 31.5513C183.47 31.9571 183.032 32.2377 182.496 32.3931C181.969 32.5421 181.368 32.5502 180.693 32.4174ZM184.777 33.0501L188.566 25.2347L191.274 25.7677L191.818 34.436L190.217 34.1208L190.126 32.2196L187.183 31.6401L186.378 33.3653L184.777 33.0501ZM187.83 30.2755L190.044 30.7113L189.833 26.4993L189.622 26.4576L187.83 30.2755ZM192.804 34.6302L194.427 26.3884L195.981 26.6943L194.637 33.5233L198.404 34.265L198.126 35.6778L192.804 34.6302Z" fill="black"/>
</svg>
