<svg width="285" height="355" viewBox="0 0 285 355" fill="none" xmlns="http://www.w3.org/2000/svg">
<g clip-path="url(#clip0_13_7)">
<rect x="0.0198975" y="56.2567" width="211" height="309" rx="4" transform="rotate(-15.2768 0.0198975 56.2567)" fill="#0F0F0F"/>
<rect x="12.3014" y="63.2685" width="191" height="191" rx="4" transform="rotate(-15.2768 12.3014 63.2685)" fill="url(#paint0_linear_13_7)"/>
<rect x="12.3014" y="63.2685" width="191" height="191" rx="4" transform="rotate(-15.2768 12.3014 63.2685)" fill="url(#paint1_linear_13_7)" fill-opacity="0.4"/>
<path d="M110.824 135.535L113.867 133.946C120.458 130.504 124.596 123.689 124.609 116.253L124.617 111.375L126.105 114.363C129.707 121.595 137.307 125.95 145.368 125.401L148.777 125.169L145.791 126.653C138.524 130.265 134.16 137.909 134.744 146.002L134.984 149.329L132.505 145.137C128.701 138.702 121.627 134.926 114.164 135.347L110.824 135.535Z" fill="#0F0F0F" fill-opacity="0.2"/>
<path d="M77.3848 290.137L70.3761 264.477L79.3572 262.024L89.9002 283.173L90.56 282.993L88.8881 259.42L97.8691 256.967L104.878 282.628L100.186 283.909L94.1481 261.805L93.4883 261.985L95.1269 285.291L87.1356 287.473L76.6993 266.571L76.0395 266.751L82.0769 288.855L77.3848 290.137ZM109.71 281.308L102.702 255.647L107.541 254.326L114.549 279.986L109.71 281.308ZM119.376 278.668L112.367 253.008L121.568 250.494L132.771 271.464L133.431 271.283L127.323 248.922L132.089 247.621L139.098 273.281L129.897 275.794L118.694 254.825L118.034 255.005L124.141 277.366L119.376 278.668ZM149.872 270.338L144.065 249.077L136.587 251.119L135.385 246.721L155.18 241.314L156.382 245.713L148.904 247.755L154.711 269.016L149.872 270.338ZM165.484 266.074L158.475 240.414L167.456 237.961L177.999 259.11L178.659 258.93L176.987 235.358L185.968 232.905L192.977 258.565L188.285 259.846L182.247 237.742L181.587 237.922L183.226 261.228L175.235 263.411L164.798 242.508L164.139 242.688L170.176 264.792L165.484 266.074ZM196.05 257.725L195.786 230.223L204.217 227.92L217.971 251.738L212.986 253.1L210.051 247.835L200.886 250.338L201.035 256.364L196.05 257.725ZM200.801 245.555L207.693 243.673L201.163 232.024L200.503 232.204L200.801 245.555ZM224.618 249.922L218.811 228.661L211.333 230.704L210.132 226.305L229.927 220.898L231.128 225.297L223.65 227.34L229.457 248.601L224.618 249.922ZM240.23 245.658L233.222 219.998L249.717 215.493L250.919 219.891L239.262 223.075L240.934 229.197L251.565 226.294L252.766 230.692L242.135 233.596L243.868 239.938L255.745 236.694L256.946 241.093L240.23 245.658Z" fill="url(#paint2_linear_13_7)"/>
<path d="M91.8807 338.154C91.0897 338.37 90.393 338.312 89.7907 337.979C89.193 337.637 88.7711 337.017 88.5252 336.116L88.1089 334.592C87.863 333.692 87.9116 332.946 88.2546 332.355C88.6022 331.755 89.1716 331.347 89.9626 331.131C90.7472 330.917 91.4059 330.976 91.9387 331.307C92.4761 331.63 92.8485 332.171 93.0558 332.93L93.069 332.978L92.4516 333.147L92.4331 333.079C92.2821 332.526 92.0112 332.116 91.6205 331.85C91.2345 331.575 90.7328 331.522 90.1154 331.691C89.4916 331.861 89.0547 332.184 88.8046 332.66C88.5609 333.135 88.5331 333.716 88.721 334.404L89.1479 335.967C89.3358 336.655 89.6553 337.141 90.1062 337.426C90.5635 337.709 91.1041 337.765 91.7279 337.595C92.3453 337.426 92.7513 337.128 92.9458 336.702C93.145 336.268 93.1691 335.774 93.0181 335.221L92.9785 335.076L93.5959 334.907L93.6302 335.033C93.8374 335.792 93.7927 336.45 93.4959 337.008C93.2037 337.558 92.6653 337.94 91.8807 338.154ZM97.8291 336.529C97.3532 336.659 96.908 336.674 96.4934 336.573C96.0834 336.464 95.7296 336.256 95.4319 335.951C95.1388 335.637 94.9264 335.239 94.7947 334.756L94.7631 334.64C94.6313 334.158 94.6127 333.711 94.7073 333.298C94.8066 332.877 95.0058 332.518 95.3051 332.222C95.609 331.918 95.9989 331.701 96.4748 331.571C96.9507 331.441 97.3936 331.431 97.8035 331.54C98.2181 331.641 98.572 331.848 98.865 332.162C99.1627 332.468 99.3775 332.862 99.5092 333.344L99.5408 333.46C99.6726 333.942 99.6888 334.394 99.5896 334.815C99.495 335.228 99.2958 335.586 98.9918 335.89C98.6926 336.186 98.305 336.399 97.8291 336.529ZM97.6868 336.008C98.2399 335.857 98.6298 335.564 98.8565 335.129C99.0814 334.688 99.1149 334.178 98.9568 333.599L98.9357 333.522C98.7776 332.943 98.4904 332.524 98.0739 332.264C97.6558 331.998 97.1702 331.941 96.6171 332.092C96.0704 332.241 95.6814 332.538 95.4501 332.981C95.2234 333.416 95.1891 333.923 95.3471 334.502L95.3682 334.579C95.5263 335.158 95.8144 335.58 96.2326 335.846C96.6554 336.104 97.1402 336.158 97.6868 336.008ZM101.633 335.345L100.352 330.657L100.912 330.504L101.08 331.122L101.196 331.09C101.245 330.89 101.356 330.687 101.527 330.481C101.697 330.269 101.979 330.109 102.371 330.002C102.75 329.898 103.08 329.902 103.359 330.012C103.644 330.121 103.871 330.283 104.041 330.5L104.157 330.468C104.199 330.194 104.313 329.938 104.497 329.701C104.681 329.464 104.982 329.289 105.4 329.175C105.722 329.087 106.02 329.078 106.295 329.148C106.568 329.212 106.804 329.344 107.004 329.545C107.203 329.74 107.345 329.995 107.431 330.31L108.308 333.522L107.729 333.68L106.868 330.526C106.776 330.191 106.601 329.952 106.34 329.809C106.085 329.658 105.774 329.632 105.407 329.733C105.034 329.834 104.756 330.042 104.572 330.355C104.386 330.661 104.356 331.046 104.483 331.509L105.26 334.355L104.681 334.513L103.819 331.358C103.728 331.024 103.552 330.785 103.292 330.642C103.037 330.491 102.725 330.465 102.359 330.565C101.986 330.667 101.707 330.874 101.523 331.187C101.337 331.494 101.308 331.878 101.434 332.342L102.212 335.187L101.633 335.345ZM109.951 333.073L108.671 328.385L109.249 328.227L110.53 332.915L109.951 333.073ZM108.739 327.496C108.597 327.534 108.465 327.519 108.342 327.449C108.219 327.378 108.139 327.273 108.1 327.131C108.06 326.983 108.075 326.851 108.147 326.735C108.217 326.612 108.323 326.531 108.465 326.492C108.613 326.452 108.745 326.468 108.861 326.54C108.982 326.603 109.063 326.709 109.103 326.857C109.142 326.999 109.126 327.131 109.056 327.254C108.992 327.375 108.887 327.455 108.739 327.496ZM112.231 332.451L110.95 327.762L111.51 327.61L111.747 328.478L111.863 328.446C111.91 328.164 112.039 327.89 112.25 327.625C112.459 327.354 112.815 327.15 113.316 327.012C113.657 326.919 113.988 326.905 114.31 326.969C114.632 327.033 114.916 327.187 115.162 327.431C115.413 327.667 115.597 328 115.715 328.431L116.495 331.286L115.916 331.444L115.146 328.627C115.006 328.113 114.776 327.778 114.458 327.623C114.139 327.469 113.764 327.45 113.333 327.568C112.851 327.699 112.493 327.97 112.259 328.379C112.024 328.782 111.994 329.305 112.169 329.948L112.81 332.293L112.231 332.451ZM117.271 328.576L117.239 328.46C117.104 327.965 117.088 327.513 117.191 327.105C117.3 326.695 117.498 326.347 117.787 326.061C118.075 325.775 118.428 325.575 118.846 325.461C119.36 325.32 119.787 325.314 120.126 325.443C120.47 325.563 120.745 325.733 120.95 325.954L121.066 325.922L120.831 325.064L121.372 324.916L122.979 330.8C123.042 331.032 123.03 331.229 122.943 331.391C122.856 331.553 122.687 331.668 122.436 331.736L119.234 332.611L119.091 332.09L122.178 331.247C122.378 331.193 122.451 331.069 122.398 330.876L121.848 328.86L121.732 328.892C121.69 329.069 121.613 329.252 121.499 329.442C121.391 329.631 121.232 329.806 121.02 329.967C120.807 330.122 120.526 330.247 120.179 330.342C119.761 330.456 119.352 330.464 118.952 330.366C118.559 330.266 118.214 330.067 117.918 329.767C117.62 329.462 117.405 329.065 117.271 328.576ZM120.172 329.784C120.706 329.638 121.091 329.353 121.328 328.929C121.571 328.504 121.612 327.998 121.452 327.413L121.431 327.336C121.27 326.744 120.977 326.33 120.553 326.093C120.134 325.848 119.657 325.799 119.123 325.945C118.596 326.089 118.211 326.374 117.968 326.799C117.723 327.219 117.681 327.724 117.843 328.316L117.864 328.393C118.024 328.978 118.316 329.392 118.742 329.636C119.168 329.879 119.645 329.928 120.172 329.784ZM128.731 328.089C128.165 328.244 127.643 328.241 127.164 328.082C126.692 327.92 126.325 327.54 126.065 326.941L126.605 326.679C126.749 327.006 126.926 327.248 127.135 327.405C127.348 327.554 127.579 327.64 127.827 327.662C128.081 327.683 128.337 327.658 128.594 327.587C128.98 327.482 129.268 327.32 129.457 327.103C129.651 326.877 129.71 326.626 129.635 326.349C129.558 326.066 129.392 325.901 129.137 325.853C128.888 325.804 128.572 325.797 128.188 325.832L127.723 325.877C127.413 325.906 127.125 325.902 126.859 325.864C126.591 325.819 126.362 325.726 126.171 325.585C125.987 325.442 125.858 325.235 125.784 324.965C125.673 324.56 125.744 324.199 125.996 323.881C126.254 323.562 126.647 323.33 127.175 323.186C127.708 323.04 128.169 323.045 128.558 323.202C128.951 323.35 129.251 323.641 129.46 324.075L128.951 324.339C128.785 323.983 128.558 323.762 128.272 323.674C127.992 323.585 127.672 323.589 127.312 323.688C126.958 323.784 126.693 323.929 126.518 324.122C126.343 324.315 126.291 324.543 126.363 324.807C126.433 325.064 126.582 325.228 126.808 325.297C127.032 325.36 127.32 325.375 127.67 325.342L128.135 325.297C128.47 325.261 128.781 325.259 129.066 325.292C129.35 325.318 129.59 325.401 129.787 325.541C129.991 325.679 130.133 325.895 130.214 326.191C130.335 326.635 130.262 327.025 129.994 327.361C129.725 327.69 129.304 327.933 128.731 328.089ZM134.108 326.621C133.632 326.75 133.186 326.765 132.772 326.664C132.362 326.555 132.008 326.347 131.71 326.042C131.417 325.728 131.205 325.33 131.073 324.847L131.042 324.732C130.91 324.249 130.891 323.802 130.986 323.389C131.085 322.968 131.284 322.609 131.584 322.313C131.888 322.009 132.277 321.792 132.753 321.662C133.229 321.532 133.672 321.522 134.082 321.631C134.497 321.732 134.851 321.939 135.144 322.253C135.441 322.559 135.656 322.953 135.788 323.435L135.819 323.551C135.951 324.033 135.967 324.485 135.868 324.906C135.774 325.319 135.574 325.677 135.27 325.982C134.971 326.278 134.584 326.491 134.108 326.621ZM133.965 326.1C134.518 325.949 134.908 325.655 135.135 325.22C135.36 324.779 135.393 324.269 135.235 323.69L135.214 323.613C135.056 323.034 134.769 322.615 134.352 322.355C133.934 322.089 133.449 322.032 132.896 322.183C132.349 322.332 131.96 322.629 131.729 323.072C131.502 323.507 131.468 324.014 131.626 324.593L131.647 324.67C131.805 325.249 132.093 325.671 132.511 325.937C132.934 326.195 133.419 326.249 133.965 326.1ZM140.09 324.987C139.614 325.117 139.169 325.131 138.754 325.03C138.344 324.921 137.99 324.713 137.692 324.408C137.399 324.094 137.187 323.696 137.055 323.213L137.024 323.098C136.892 322.615 136.873 322.168 136.968 321.755C137.067 321.334 137.266 320.975 137.566 320.679C137.87 320.375 138.259 320.158 138.735 320.028C139.211 319.898 139.654 319.888 140.064 319.997C140.479 320.098 140.833 320.305 141.126 320.619C141.423 320.925 141.638 321.319 141.77 321.801L141.801 321.917C141.933 322.399 141.949 322.851 141.85 323.272C141.756 323.685 141.556 324.044 141.252 324.348C140.953 324.644 140.566 324.857 140.09 324.987ZM139.947 324.466C140.5 324.315 140.89 324.022 141.117 323.586C141.342 323.145 141.375 322.635 141.217 322.056L141.196 321.979C141.038 321.4 140.751 320.981 140.335 320.721C139.916 320.455 139.431 320.398 138.878 320.549C138.331 320.698 137.942 320.995 137.711 321.438C137.484 321.873 137.45 322.38 137.608 322.959L137.629 323.036C137.787 323.615 138.075 324.037 138.493 324.303C138.916 324.561 139.401 324.615 139.947 324.466ZM143.893 323.803L142.613 319.114L143.172 318.961L143.409 319.83L143.525 319.798C143.572 319.516 143.702 319.242 143.913 318.977C144.122 318.706 144.477 318.501 144.979 318.364C145.32 318.271 145.651 318.257 145.972 318.321C146.294 318.385 146.578 318.539 146.824 318.783C147.075 319.018 147.26 319.352 147.377 319.783L148.157 322.638L147.578 322.796L146.809 319.979C146.668 319.465 146.439 319.13 146.12 318.975C145.801 318.82 145.427 318.802 144.996 318.92C144.513 319.051 144.155 319.322 143.922 319.731C143.686 320.134 143.656 320.657 143.832 321.3L144.472 323.644L143.893 323.803Z" fill="white"/>
</g>
<defs>
<linearGradient id="paint0_linear_13_7" x1="203.301" y1="254.269" x2="12.3014" y2="63.2685" gradientUnits="userSpaceOnUse">
<stop stop-color="#E2DDC6"/>
<stop offset="1" stop-color="#424246"/>
</linearGradient>
<linearGradient id="paint1_linear_13_7" x1="12.3014" y1="254.269" x2="203.301" y2="63.2685" gradientUnits="userSpaceOnUse">
<stop stop-color="#CACACD"/>
<stop offset="1" stop-color="#676870"/>
</linearGradient>
<linearGradient id="paint2_linear_13_7" x1="71.5401" y1="278.257" x2="254.826" y2="228.195" gradientUnits="userSpaceOnUse">
<stop stop-color="white"/>
<stop offset="1" stop-color="#424242"/>
</linearGradient>
<clipPath id="clip0_13_7">
<rect x="0.0198975" y="56.2567" width="211" height="309" rx="4" transform="rotate(-15.2768 0.0198975 56.2567)" fill="white"/>
</clipPath>
</defs>
</svg>
